<svg width="0" height="0" style="display: none;">

<symbol xmlns="http://www.w3.org/2000/svg" viewBox="0 0 24 24" fill="none" id="search">
    <path d="M9.5,3A6.5,6.5 0 0,1 16,9.5C16,11.11 15.41,12.59 14.44,13.73L14.71,14H15.5L20.5,19L19,20.5L14,15.5V14.71L13.73,14.44C12.59,15.41 11.11,16 9.5,16A6.5,6.5 0 0,1 3,9.5A6.5,6.5 0 0,1 9.5,3M9.5,5C7,5 5,7 5,9.5C5,12 7,14 9.5,14C12,14 14,12 14,9.5C14,7 12,5 9.5,5Z" fill="currentColor"/>
  </symbol>
<symbol xmlns="http://www.w3.org/2000/svg" viewBox="0 0 24 24" fill="none" id="cart">
    <path d="M17,18A2,2 0 0,1 19,20A2,2 0 0,1 17,22C15.89,22 15,21.1 15,20C15,18.89 15.89,18 17,18M1,2H4.27L5.21,4H20A1,1 0 0,1 21,5C21,5.17 20.95,5.34 20.88,5.5L17.3,11.97C16.96,12.58 16.3,13 15.55,13H8.1L7.2,14.63L7.17,14.75A0.25,0.25 0 0,0 7.42,15H19V17H7C5.89,17 5,16.1 5,15C5,14.65 5.09,14.32 5.24,14.04L6.6,11.59L3,4H1V2M7,18A2,2 0 0,1 9,20A2,2 0 0,1 7,22C5.89,22 5,21.1 5,20C5,18.89 5.89,18 7,18M16,11L18.78,6H6.14L8.5,11H16Z" fill="currentColor"/>
  </symbol>
<symbol xmlns="http://www.w3.org/2000/svg" viewBox="0 0 24 24" fill="none" id="user-circle">
    <path d="M12,19.2C9.5,19.2 7.29,17.92 6,16C6.03,14 10,12.9 12,12.9C14,12.9 17.97,14 18,16C16.71,17.92 14.5,19.2 12,19.2M12,5A3,3 0 0,1 15,8A3,3 0 0,1 12,11A3,3 0 0,1 9,8A3,3 0 0,1 12,5M12,2A10,10 0 0,0 2,12A10,10 0 0,0 12,22A10,10 0 0,0 22,12C22,6.47 17.5,2 12,2Z" fill="currentColor"/>
  </symbol>
<symbol xmlns="http://www.w3.org/2000/svg" viewBox="0 0 24 24" fill="none" id="arrow-left">
    <path d="M15.41,16.58L10.83,12L15.41,7.41L14,6L8,12L14,18L15.41,16.58Z" fill="currentColor"/>
  </symbol>
<symbol xmlns="http://www.w3.org/2000/svg" viewBox="0 0 24 24" fill="none" id="arrow-right">
    <path d="M8.59,16.58L13.17,12L8.59,7.41L10,6L16,12L10,18L8.59,16.58Z" fill="currentColor"/>
  </symbol>
<symbol xmlns="http://www.w3.org/2000/svg" viewBox="0 0 24 24" fill="none" id="arrow-left-thick">
    <path d="M20,10V14H11L14.5,17.5L12.08,19.92L4.16,12L12.08,4.08L14.5,6.5L11,10H20Z" fill="currentColor"/>
  </symbol>
<symbol xmlns="http://www.w3.org/2000/svg" viewBox="0 0 24 24" fill="none" id="arrow-right-thick">
    <path d="M4,10V14H13L9.5,17.5L11.92,19.92L19.84,12L11.92,4.08L9.5,6.5L13,10H4Z" fill="currentColor"/>
  </symbol>
<symbol xmlns="http://www.w3.org/2000/svg" viewBox="0 0 24 24" fill="none" id="close">
    <path d="M19,6.41L17.59,5L12,10.59L6.41,5L5,6.41L10.59,12L5,17.59L6.41,19L12,13.41L17.59,19L19,17.59L13.41,12L19,6.41Z" fill="currentColor"/>
  </symbol>
<symbol xmlns="http://www.w3.org/2000/svg" viewBox="0 0 24 24" fill="none" id="alert-octagone">
    <path d="M8.27,3L3,8.27V15.73L8.27,21H15.73C17.5,19.24 21,15.73 21,15.73V8.27L15.73,3M9.1,5H14.9L19,9.1V14.9L14.9,19H9.1L5,14.9V9.1M11,15H13V17H11V15M11,7H13V13H11V7" fill="currentColor"/>
  </symbol>
</svg>
