<svg width="0" height="0" style="display: none;">
    <symbol xmlns="http://www.w3.org/2000/svg" viewBox="0 0 196.4 56.6" id="logo">
        <polygon fill="#FDBD68" points="58,27.3 68,44.2 58.6,44.2 50.7,31.4 38.8,50.6 27.5,53.6 43.4,27.3 33.3,11 38.3,2.7 50.9,23.2
	58.6,10.7 68,10.7 " />
        <path fill="#FDBD68" d="M19.6,19.1l-4.9-8.2l14.8,0l4.9-8.2H0l27.5,44.6l4.8-7.9l-7.7-12.2l14.8,0l-4.9-8.2H19.6z" />
        <path fill="#D4D4DC" d="M71.7,11.2c0-0.3,0.3-0.5,0.8-0.5c0.8,0,2.3,0,3.1,0c0.5,0,0.7,0.3,0.6,0.5l-5.7,32.5c0,0.3-0.4,0.5-0.8,0.5
	c-0.8,0-2.3,0-3.1,0c-0.6,0-0.7-0.3-0.6-0.5L71.7,11.2z" />
        <path fill="#D4D4DC" d="M79.6,43.7c0,0.2-0.4,0.5-0.7,0.5h-3.3c-0.3,0-0.6-0.2-0.5-0.5l4.5-25.6c0.2-1.1,0.6-2.1,1.2-3.1
	c0.6-1,1.4-1.8,2.2-2.5c0.9-0.7,1.9-1.3,2.9-1.7c1.1-0.4,2.2-0.6,3.3-0.6c1.1,0,2.2,0.2,3.1,0.6c0.9,0.4,1.7,1,2.4,1.7
	c0.6,0.7,1.1,1.6,1.4,2.5c0.3,1,0.3,2,0.1,3.1l-4.5,25.5c0,0.2-0.3,0.6-0.8,0.6h-3.2c-0.4,0-0.7-0.3-0.6-0.6l4.4-25.3
	c0.1-0.5,0.1-1,0-1.5c-0.1-0.5-0.3-0.9-0.5-1.3c-0.3-0.4-0.6-0.7-1-0.9c-0.4-0.2-0.9-0.3-1.5-0.3c-0.5,0-1.1,0.1-1.6,0.3
	c-0.5,0.2-0.9,0.5-1.3,0.9c-0.4,0.4-0.7,0.8-1,1.3c-0.3,0.5-0.4,1-0.5,1.5L79.6,43.7z" />
        <path fill="#D4D4DC" d="M97,34.8c0.1-0.3,0.2-0.6,0.8-0.6c0.7,0,2.9,0,2.9,0c0.5,0,0.6,0.4,0.6,0.7l-0.2,1.3c-0.1,0.8-0.1,1.5,0,2
	c0.2,0.5,0.4,1,0.7,1.3c0.3,0.3,0.7,0.6,1.1,0.7s0.8,0.2,1.2,0.2c0.5,0,1.1-0.1,1.6-0.3c0.5-0.2,1-0.5,1.4-0.8
	c0.4-0.4,0.8-0.8,1.1-1.3c0.3-0.5,0.5-1,0.6-1.6c0.1-0.8,0.2-1.5,0.1-2c-0.1-0.6-0.3-1.1-0.6-1.7c-0.3-0.5-0.8-1.1-1.3-1.7
	c-0.6-0.6-1.2-1.3-2-2c-0.9-0.9-1.7-1.7-2.5-2.4c-0.7-0.7-1.3-1.5-1.8-2.3c-0.5-0.8-0.8-1.6-0.9-2.6c-0.2-0.9-0.1-2,0.1-3.3
	c0.2-1.1,0.5-2.1,0.9-2.9c0.4-0.8,0.9-1.6,1.4-2.2c0.5-0.6,1.1-1.1,1.8-1.6c0.6-0.4,1.3-0.8,1.9-1c0.6-0.3,1.2-0.4,1.8-0.5
	c0.6-0.1,1.1-0.2,1.5-0.2c1.2,0,2.2,0.2,3.2,0.6c0.9,0.4,1.7,1,2.3,1.7c0.6,0.7,1,1.6,1.2,2.6c0.2,1,0.2,2.1,0,3.3l-0.2,1.4
	c-0.1,0.3-0.2,0.5-0.3,0.7c-0.1,0.1-0.4,0.2-0.7,0.2h-2.8c-0.3,0-0.4-0.1-0.5-0.2c-0.1-0.1-0.1-0.4,0-0.7l0.2-1.4
	c0.1-0.5,0.1-1,0-1.5c-0.1-0.5-0.2-0.9-0.5-1.3c-0.2-0.4-0.6-0.7-1-0.9c-0.4-0.2-0.9-0.4-1.5-0.4c-0.4,0-0.8,0.1-1.3,0.2
	c-0.5,0.1-0.9,0.4-1.3,0.7c-0.4,0.3-0.8,0.8-1.2,1.3c-0.3,0.6-0.6,1.3-0.7,2.1c-0.1,0.7-0.1,1.4,0,2c0.2,0.6,0.4,1.1,0.7,1.6
	c0.3,0.5,0.7,0.9,1.1,1.3c0.4,0.4,0.9,0.8,1.3,1.2c1,1,1.9,1.8,2.7,2.6c0.8,0.8,1.5,1.6,2.1,2.5c0.5,0.9,0.9,1.9,1.1,2.9
	c0.2,1.1,0.2,2.4-0.1,3.9c-0.2,1.1-0.6,2.1-1.1,3c-0.6,1-1.3,1.8-2.1,2.5c-0.8,0.7-1.8,1.3-2.9,1.7c-1.1,0.4-2.2,0.7-3.5,0.7
	c-1.2,0-2.3-0.2-3.2-0.6c-0.9-0.4-1.7-1-2.3-1.7c-0.6-0.7-1-1.6-1.2-2.6c-0.2-1-0.2-2.1,0-3.3C96.8,35.9,97,34.8,97,34.8z" />
        <path fill="#D4D4DC" d="M118.8,11.4c0-0.3,0.1-0.5,0.3-0.6c0.2-0.1,0.3-0.2,0.5-0.2h14.3c0.2,0,0.3,0.1,0.4,0.2
	c0.1,0.1,0.1,0.3,0.1,0.6l-0.5,2.7c0,0.3-0.1,0.5-0.3,0.6s-0.3,0.2-0.5,0.2h-4.9l-5,28.6c0,0.3-0.1,0.5-0.3,0.6
	c-0.1,0.1-0.3,0.2-0.5,0.2h-3.3c-0.2,0-0.3-0.1-0.4-0.2c-0.1-0.1-0.2-0.3-0.1-0.6l5-28.6h-4.9c-0.2,0-0.3-0.1-0.4-0.2
	c-0.1-0.1-0.1-0.3-0.1-0.6L118.8,11.4z" />
        <path fill="#D4D4DC" d="M136.9,11.5c0-0.3,0.1-0.5,0.3-0.6c0.2-0.2,0.3-0.2,0.6-0.2h3.1c0.3,0,0.4,0.1,0.5,0.2
	c0.1,0.2,0.1,0.4,0.1,0.6l-5.6,31.8c0,0.3-0.1,0.5-0.3,0.6c-0.1,0.2-0.3,0.2-0.6,0.2h-3.1c-0.3,0-0.4-0.1-0.5-0.2
	c-0.1-0.2-0.1-0.4-0.1-0.6L136.9,11.5z" />
        <path fill="#D4D4DC" d="M144,11.4c0-0.3,0.1-0.5,0.3-0.6c0.2-0.1,0.3-0.2,0.5-0.2h14.3c0.2,0,0.3,0.1,0.4,0.2
	c0.1,0.1,0.1,0.3,0.1,0.6l-0.5,2.7c0,0.3-0.1,0.5-0.3,0.6s-0.3,0.2-0.5,0.2h-4.9l-5,28.6c0,0.3-0.1,0.5-0.3,0.6
	c-0.1,0.1-0.3,0.2-0.5,0.2h-3.3c-0.2,0-0.3-0.1-0.4-0.2c-0.1-0.1-0.2-0.3-0.1-0.6l5-28.6h-4.9c-0.2,0-0.3-0.1-0.4-0.2
	c-0.1-0.1-0.1-0.3-0.1-0.6L144,11.4z" />
        <path fill="#D4D4DC" d="M162,36.5c-0.1,0.5-0.1,1,0,1.5c0.1,0.5,0.3,0.9,0.6,1.3c0.3,0.4,0.6,0.7,1,0.9c0.4,0.2,0.9,0.3,1.5,0.3
	c0.5,0,1.1-0.1,1.6-0.3c0.5-0.2,0.9-0.5,1.3-0.9c0.4-0.4,0.7-0.8,1-1.3c0.3-0.5,0.5-1,0.6-1.5l4.4-25c0-0.2,0.1-0.4,0.3-0.6
	c0.1-0.2,0.3-0.3,0.6-0.3h3.2c0.3,0,0.4,0.1,0.5,0.3c0.1,0.2,0.1,0.4,0,0.6L174,36.7c-0.2,1.1-0.6,2.1-1.2,3.1
	c-0.6,1-1.4,1.8-2.3,2.5c-0.9,0.7-1.9,1.3-3,1.7c-1.1,0.4-2.2,0.6-3.3,0.6c-1.1,0-2.2-0.2-3.1-0.6c-0.9-0.4-1.7-1-2.4-1.7
	c-0.6-0.7-1.1-1.6-1.4-2.5c-0.3-1-0.3-2-0.1-3.1l4.5-25.2c0-0.3,0.1-0.5,0.3-0.6c0.2-0.2,0.3-0.2,0.5-0.2h3.3c0.3,0,0.4,0.1,0.5,0.3
	c0.1,0.2,0.1,0.4,0,0.6L162,36.5z" />
        <path fill="#D4D4DC" d="M180.7,11.4c0-0.3,0.1-0.5,0.3-0.6c0.2-0.1,0.3-0.2,0.5-0.2h14.3c0.2,0,0.3,0.1,0.4,0.2
	c0.1,0.1,0.1,0.3,0.1,0.6l-0.5,2.7c0,0.3-0.1,0.5-0.3,0.6c-0.2,0.1-0.3,0.2-0.5,0.2h-4.9l-5,28.6c0,0.3-0.1,0.5-0.3,0.6
	c-0.1,0.1-0.3,0.2-0.5,0.2h-3.3c-0.2,0-0.3-0.1-0.4-0.2c-0.1-0.1-0.2-0.3-0.1-0.6l5-28.6h-4.9c-0.2,0-0.3-0.1-0.4-0.2
	c-0.1-0.1-0.1-0.3-0.1-0.6L180.7,11.4z" />
    </symbol>

    <symbol id="logo-icon" width="100%" height="100%" xmlns="http://www.w3.org/2000/svg" viewBox="0 0 198.07 144.52">
        <polygon points="174.6 65.1 197.66 104.04 167.74 104.16 151.54 78.14 116.29 134.77 80.27 144.52 128.31 65.1 105.03 26.37 120.93 0 152.12 52.05 168.02 26.04 198.06 26.08 174.6 65.1" fill="currentColor" />
        <polygon points="116.29 65.1 108.43 52.05 61.55 52.05 45.93 26.01 92.88 26.05 108.59 0 0 0.04 34.27 56.73 77.76 129.2 92.86 104.24 77.21 78.14 108.43 78.14 116.29 65.1" fill="currentColor" />
    </symbol>
    <symbol xmlns="http://www.w3.org/2000/svg" viewBox="0 0 12 12" fill="none" id="home">
        <path d="M0 4v7a1 1 0 001 1h3V8h4v4h3a1 1 0 001-1V4L6 0 0 4z" fill="currentColor" />
    </symbol>
</svg>
