<svg id="logo" xmlns="http://www.w3.org/2000/svg" width="189.59" height="53.68" viewBox="0 0 189.59 53.68"><polygon points="64.39 24.18 72.9 38.64 61.86 38.69 55.89 29.02 42.89 50.06 29.61 53.68 47.32 24.18 38.74 9.8 44.6 0 56.1 19.33 61.97 9.67 73.05 9.69 64.39 24.18" fill="#fdbd69"/><path d="M83.23,12.12c0-.22.23-.44.7-.44h2.69c.45,0,.59.22.55.44l-4.94,28a.68.68,0,0,1-.68.46c-.68,0-2,0-2.7,0-.52,0-.59-.23-.55-.46Z" transform="translate(-1 -2)" fill="#d4d4dc"/><path d="M90.08,40.16c0,.21-.31.39-.64.39H86.6c-.29,0-.48-.19-.44-.41l3.89-22.07a7.12,7.12,0,0,1,1-2.67A9.28,9.28,0,0,1,93,13.23a9,9,0,0,1,2.54-1.46,7.84,7.84,0,0,1,2.86-.53,6.5,6.5,0,0,1,2.67.53,5.53,5.53,0,0,1,3.2,3.63,6,6,0,0,1,.1,2.67l-3.87,22a.68.68,0,0,1-.68.5H97.12c-.34,0-.57-.29-.52-.5l3.82-21.8a3.16,3.16,0,0,0,0-1.3,2.74,2.74,0,0,0-.47-1.09,2.6,2.6,0,0,0-.89-.75,2.73,2.73,0,0,0-1.27-.28,3.38,3.38,0,0,0-1.36.28,4.23,4.23,0,0,0-1.15.75A4.31,4.31,0,0,0,94.42,17a4.06,4.06,0,0,0-.47,1.3Z" transform="translate(-1 -2)" fill="#d4d4dc"/><path d="M105,32.51a.65.65,0,0,1,.72-.56h2.46a.47.47,0,0,1,.48.6l-.16,1.13a3.8,3.8,0,0,0,0,1.76,2.71,2.71,0,0,0,.62,1.15,2.34,2.34,0,0,0,1,.62,3.17,3.17,0,0,0,1.06.19,3.8,3.8,0,0,0,1.36-.25,4.28,4.28,0,0,0,1.22-.71,4.19,4.19,0,0,0,.93-1.08,4.07,4.07,0,0,0,.5-1.38,5.68,5.68,0,0,0,.08-1.76,3.89,3.89,0,0,0-.52-1.46,8.22,8.22,0,0,0-1.14-1.46c-.48-.5-1.07-1.09-1.76-1.75s-1.51-1.45-2.13-2.07a10.31,10.31,0,0,1-1.54-1.94,6.22,6.22,0,0,1-.79-2.21,8.86,8.86,0,0,1,.09-2.87,9.29,9.29,0,0,1,.79-2.5,7.83,7.83,0,0,1,1.24-1.89,7.42,7.42,0,0,1,1.53-1.35,9.67,9.67,0,0,1,1.64-.87,9.54,9.54,0,0,1,1.57-.47,7.61,7.61,0,0,1,1.31-.14,6.54,6.54,0,0,1,2.72.53,5.05,5.05,0,0,1,1.94,1.48,5.53,5.53,0,0,1,1,2.26,6.89,6.89,0,0,1,0,2.83l-.2,1.23a1.21,1.21,0,0,1-.25.57.8.8,0,0,1-.59.18h-2.42c-.24,0-.38-.06-.43-.19a1.06,1.06,0,0,1,0-.56l.21-1.21a4.26,4.26,0,0,0,0-1.33,2.84,2.84,0,0,0-.41-1.13,2.35,2.35,0,0,0-.86-.79,2.75,2.75,0,0,0-1.33-.3A3.87,3.87,0,0,0,114,15a3.38,3.38,0,0,0-1.15.61,4.31,4.31,0,0,0-1,1.16,4.88,4.88,0,0,0-.63,1.81,3.85,3.85,0,0,0,0,1.7,4.4,4.4,0,0,0,.61,1.36,7,7,0,0,0,1,1.14l1.13,1.08,2.36,2.27a10.53,10.53,0,0,1,1.79,2.17,7.64,7.64,0,0,1,1,2.53,9.79,9.79,0,0,1-.07,3.35,7.83,7.83,0,0,1-1,2.58,8.46,8.46,0,0,1-1.82,2.18,9.23,9.23,0,0,1-2.5,1.5,7.82,7.82,0,0,1-3,.56,6.73,6.73,0,0,1-2.78-.53,5.32,5.32,0,0,1-2-1.47,5.23,5.23,0,0,1-1.07-2.25,7.08,7.08,0,0,1,0-2.87C104.86,33.44,105,32.51,105,32.51Z" transform="translate(-1 -2)" fill="#d4d4dc"/><path d="M123.83,12.34a.83.83,0,0,1,.26-.5.66.66,0,0,1,.43-.16h12.32a.48.48,0,0,1,.37.14.59.59,0,0,1,.07.5l-.4,2.3a.73.73,0,0,1-.24.51.64.64,0,0,1-.43.16H132l-4.33,24.6a.82.82,0,0,1-.25.5.56.56,0,0,1-.39.16h-2.82a.48.48,0,0,1-.38-.16.6.6,0,0,1-.1-.5l4.34-24.6h-4.2a.44.44,0,0,1-.36-.16.6.6,0,0,1-.08-.51Z" transform="translate(-1 -2)" fill="#d4d4dc"/><path d="M139.41,12.43a1.09,1.09,0,0,1,.26-.55.68.68,0,0,1,.49-.2h2.69a.47.47,0,0,1,.45.2.82.82,0,0,1,.06.55L138.51,39.8a1,1,0,0,1-.22.56.66.66,0,0,1-.51.19h-2.69c-.23,0-.38-.06-.45-.19a.78.78,0,0,1,0-.56Z" transform="translate(-1 -2)" fill="#d4d4dc"/><path d="M145.53,12.34a.83.83,0,0,1,.26-.5.64.64,0,0,1,.43-.16h12.32a.45.45,0,0,1,.36.14.56.56,0,0,1,.07.5l-.39,2.3a.73.73,0,0,1-.24.51.66.66,0,0,1-.43.16h-4.22l-4.32,24.6a.88.88,0,0,1-.25.5.6.6,0,0,1-.4.16H145.9a.46.46,0,0,1-.37-.16.6.6,0,0,1-.11-.5l4.35-24.6h-4.2a.46.46,0,0,1-.37-.16.61.61,0,0,1-.07-.51Z" transform="translate(-1 -2)" fill="#d4d4dc"/><path d="M161,34a3.39,3.39,0,0,0,0,1.31,2.82,2.82,0,0,0,.48,1.1,2.47,2.47,0,0,0,.89.74,2.77,2.77,0,0,0,1.25.27,3.51,3.51,0,0,0,1.36-.27,4,4,0,0,0,1.16-.74,4.24,4.24,0,0,0,.86-1.1,3.91,3.91,0,0,0,.48-1.31l3.78-21.51a1.32,1.32,0,0,1,.24-.54.58.58,0,0,1,.51-.25h2.74a.39.39,0,0,1,.42.25,1.19,1.19,0,0,1,0,.54l-3.84,21.7a7.33,7.33,0,0,1-1.05,2.66,9.14,9.14,0,0,1-4.49,3.63A7.81,7.81,0,0,1,163,41a6.5,6.5,0,0,1-2.67-.53,5.56,5.56,0,0,1-2-1.46,5.38,5.38,0,0,1-1.17-2.17,5.78,5.78,0,0,1-.11-2.66l3.84-21.74a1,1,0,0,1,.24-.55.63.63,0,0,1,.43-.2h2.84c.22,0,.36.07.41.21a1.08,1.08,0,0,1,0,.54Z" transform="translate(-1 -2)" fill="#d4d4dc"/><path d="M177.12,12.34a.83.83,0,0,1,.26-.5.66.66,0,0,1,.43-.16h12.32a.49.49,0,0,1,.37.14.59.59,0,0,1,.07.5l-.4,2.3a.73.73,0,0,1-.24.51.64.64,0,0,1-.43.16h-4.21L181,39.89a.82.82,0,0,1-.25.5.58.58,0,0,1-.39.16H177.5a.48.48,0,0,1-.38-.16.6.6,0,0,1-.1-.5l4.34-24.6h-4.2a.44.44,0,0,1-.36-.16.6.6,0,0,1-.08-.51Z" transform="translate(-1 -2)" fill="#d4d4dc"/><polygon points="42.89 24.18 39.99 19.33 22.7 19.33 16.94 9.66 34.26 9.68 40.05 0 0 0.01 12.64 21.07 28.68 47.99 34.25 38.72 28.48 29.02 39.99 29.02 42.89 24.18" fill="#fdbd69"/></svg>